<svg width="180" height="40" viewBox="0 0 180 40" fill="none" xmlns="http://www.w3.org/2000/svg">
<path d="M5.61997 26.822L0 19.1681L5.61997 11.5474H8.30169L2.65841 19.1681L8.30169 26.822H5.61997Z" fill="#3DD2CC"/>
<path d="M24.6646 0L18.2751 37.005H16.1764L22.5425 0H24.6646Z" fill="#3DD2CC"/>
<path d="M32.1871 11.5474H34.8688L40.5121 19.1681L34.8688 26.822H32.1871L35.0087 22.995L37.8304 19.1681L32.1871 11.5474Z" fill="#3DD2CC"/>
<path d="M63.5671 8.15308C65.3394 8.15308 66.8707 8.63006 68.161 9.58403C69.4669 10.5158 70.4619 11.858 71.1459 13.6106C71.8455 15.3633 72.1953 17.4265 72.1953 19.8003C72.1953 22.1742 71.8455 24.2374 71.1459 25.99C70.4619 27.7205 69.4669 29.0516 68.161 29.9834C66.8707 30.893 65.3394 31.3478 63.5671 31.3478H58.5068V8.15308H63.5671ZM63.5671 28.8519C65.6659 28.8519 67.2671 28.0643 68.3709 26.4892C69.4747 24.8918 70.0266 22.6622 70.0266 19.8003C70.0266 16.9162 69.4669 14.6644 68.3476 13.0449C67.2438 11.4254 65.6503 10.6156 63.5671 10.6156H60.6289V28.8519H63.5671Z" fill="black"/>
<path d="M90.6183 21.5308C90.6183 22.1076 90.595 22.7177 90.5484 23.3611H80.3345C80.4122 25.1581 80.8397 26.5668 81.6171 27.5874C82.4099 28.5857 83.366 29.0849 84.4853 29.0849C85.4026 29.0849 86.1643 28.7854 86.7706 28.1864C87.3925 27.5652 87.8278 26.7443 88.0765 25.7238H90.3618C90.0198 27.4764 89.3358 28.9074 88.3097 30.0166C87.2837 31.1037 86.0089 31.6473 84.4853 31.6473C83.2727 31.6473 82.1845 31.259 81.2206 30.4825C80.2723 29.706 79.5261 28.6079 78.982 27.188C78.4378 25.746 78.1658 24.0821 78.1658 22.1963C78.1658 20.3106 78.4301 18.6578 78.9586 17.2379C79.4872 15.8181 80.2257 14.731 81.174 13.9767C82.1378 13.2002 83.2416 12.812 84.4853 12.812C85.6979 12.812 86.7706 13.1891 87.7034 13.9434C88.6362 14.6977 89.3513 15.7404 89.8488 17.0715C90.3618 18.3805 90.6183 19.8669 90.6183 21.5308ZM88.4263 20.8985C88.4263 19.7449 88.2475 18.7576 87.89 17.9368C87.5324 17.0937 87.0427 16.4615 86.4208 16.0399C85.8145 15.5962 85.1383 15.3744 84.3921 15.3744C83.3194 15.3744 82.4021 15.8625 81.6404 16.8386C80.8942 17.8148 80.4666 19.1681 80.3578 20.8985H88.4263Z" fill="black"/>
<path d="M106.245 17.8702V20.4326H96.9406V17.8702H106.245Z" fill="black"/>
<path d="M119.345 31.5807C118.273 31.5807 117.309 31.3145 116.454 30.782C115.614 30.2274 114.954 29.4731 114.472 28.5191C113.99 27.543 113.741 26.4226 113.725 25.1581H115.987C116.065 26.2451 116.376 27.1658 116.92 27.9201C117.48 28.6522 118.288 29.0183 119.345 29.0183C120.356 29.0183 121.149 28.6633 121.724 27.9534C122.315 27.2213 122.61 26.2895 122.61 25.1581C122.61 24.2707 122.439 23.5496 122.097 22.995C121.755 22.4404 121.328 22.0189 120.815 21.7304C120.302 21.442 119.61 21.1314 118.739 20.7987C117.666 20.3993 116.804 20 116.151 19.6007C115.513 19.2013 114.961 18.5801 114.495 17.7371C114.044 16.8719 113.819 15.7182 113.819 14.2762C113.819 13.0116 114.044 11.8913 114.495 10.9151C114.946 9.93899 115.575 9.18469 116.384 8.65225C117.208 8.1198 118.148 7.85358 119.206 7.85358C120.729 7.85358 121.973 8.39712 122.937 9.48419C123.916 10.5713 124.468 12.0133 124.592 13.8103H122.26C122.183 12.9229 121.856 12.1464 121.281 11.4809C120.706 10.7931 119.944 10.4493 118.996 10.4493C118.109 10.4493 117.387 10.782 116.827 11.4476C116.267 12.091 115.987 13.0006 115.987 14.1764C115.987 15.0194 116.151 15.7072 116.477 16.2396C116.819 16.772 117.231 17.1825 117.713 17.4709C118.211 17.7371 118.902 18.0477 119.788 18.4027C120.861 18.8242 121.724 19.2457 122.377 19.6672C123.03 20.0666 123.59 20.6988 124.056 21.5641C124.522 22.4071 124.756 23.5607 124.756 25.025C124.756 26.1564 124.546 27.2213 124.126 28.2196C123.706 29.218 123.084 30.0277 122.26 30.6489C121.436 31.2701 120.465 31.5807 119.345 31.5807Z" fill="black"/>
<path d="M142.849 13.1115L135.154 39.9334H132.962L135.48 31.1481L130.327 13.1115H132.682L136.693 27.8869L140.657 13.1115H142.849Z" fill="black"/>
<path d="M155.173 12.7787C156.728 12.7787 157.987 13.4554 158.951 14.8087C159.915 16.1398 160.397 18.0699 160.397 20.599V31.3478H158.298V21.0316C158.298 19.2124 157.979 17.8258 157.342 16.8719C156.704 15.8957 155.834 15.4077 154.73 15.4077C153.611 15.4077 152.717 15.9068 152.048 16.9052C151.395 17.9035 151.069 19.3566 151.069 21.2646V31.3478H148.947V13.1115H151.069V15.7072C151.489 14.7754 152.056 14.0544 152.771 13.5441C153.502 13.0338 154.302 12.7787 155.173 12.7787Z" fill="black"/>
<path d="M167.034 22.1631C167.034 20.2995 167.299 18.6689 167.827 17.2712C168.356 15.8514 169.079 14.7532 169.996 13.9767C170.929 13.2002 171.97 12.812 173.121 12.812C174.225 12.812 175.188 13.1669 176.012 13.8769C176.852 14.5646 177.466 15.4187 177.855 16.4393V13.1115H180V40H177.855V27.9867C177.45 29.0072 176.829 29.8724 175.989 30.5824C175.15 31.2923 174.17 31.6473 173.051 31.6473C171.931 31.6473 170.913 31.2479 169.996 30.4492C169.079 29.6506 168.356 28.5302 167.827 27.0882C167.299 25.6461 167.034 24.0044 167.034 22.1631ZM177.855 22.1963C177.855 20.8209 177.66 19.6229 177.272 18.6023C176.883 17.5818 176.354 16.8053 175.686 16.2729C175.033 15.7182 174.31 15.4409 173.517 15.4409C172.724 15.4409 172.001 15.7072 171.349 16.2396C170.696 16.772 170.175 17.5485 169.786 18.5691C169.397 19.5896 169.203 20.7876 169.203 22.1631C169.203 23.5607 169.397 24.7809 169.786 25.8236C170.175 26.8441 170.696 27.6317 171.349 28.1864C172.001 28.7188 172.724 28.985 173.517 28.985C174.31 28.985 175.033 28.7188 175.686 28.1864C176.354 27.6317 176.883 26.8441 177.272 25.8236C177.66 24.7809 177.855 23.5718 177.855 22.1963Z" fill="black"/>
</svg>
